<svg width="21" height="15" viewBox="0 0 21 15" fill="none" xmlns="http://www.w3.org/2000/svg">
<path d="M8.92651 10.8774L14.1165 7.87744L8.92651 4.87744V10.8774ZM20.4865 3.04744C20.6165 3.51744 20.7065 4.14744 20.7665 4.94744C20.8365 5.74744 20.8665 6.43744 20.8665 7.03744L20.9265 7.87744C20.9265 10.0674 20.7665 11.6774 20.4865 12.7074C20.2365 13.6074 19.6565 14.1874 18.7565 14.4374C18.2865 14.5674 17.4265 14.6574 16.1065 14.7174C14.8065 14.7874 13.6165 14.8174 12.5165 14.8174L10.9265 14.8774C6.73651 14.8774 4.12651 14.7174 3.09651 14.4374C2.19651 14.1874 1.61651 13.6074 1.36651 12.7074C1.23651 12.2374 1.14651 11.6074 1.08651 10.8074C1.01651 10.0074 0.986514 9.31744 0.986514 8.71744L0.926514 7.87744C0.926514 5.68744 1.08651 4.07744 1.36651 3.04744C1.61651 2.14744 2.19651 1.56744 3.09651 1.31744C3.56651 1.18744 4.42651 1.09744 5.74651 1.03744C7.04651 0.967441 8.23651 0.937441 9.33651 0.937441L10.9265 0.877441C15.1165 0.877441 17.7265 1.03744 18.7565 1.31744C19.6565 1.56744 20.2365 2.14744 20.4865 3.04744Z" fill="#D5AC5B"/>
</svg>
