<svg width="21" height="21" viewBox="0 0 21 21" fill="none" xmlns="http://www.w3.org/2000/svg">
<path d="M6.72651 0.288086H15.1265C18.3265 0.288086 20.9265 2.88809 20.9265 6.08809V14.4881C20.9265 16.0263 20.3154 17.5016 19.2277 18.5893C18.14 19.677 16.6648 20.2881 15.1265 20.2881H6.72651C3.52651 20.2881 0.926514 17.6881 0.926514 14.4881V6.08809C0.926514 4.54983 1.53758 3.07458 2.62529 1.98687C3.71301 0.899156 5.18826 0.288086 6.72651 0.288086ZM6.52651 2.28809C5.57173 2.28809 4.65606 2.66737 3.98093 3.3425C3.3058 4.01763 2.92651 4.93331 2.92651 5.88809V14.6881C2.92651 16.6781 4.53651 18.2881 6.52651 18.2881H15.3265C16.2813 18.2881 17.197 17.9088 17.8721 17.2337C18.5472 16.5585 18.9265 15.6429 18.9265 14.6881V5.88809C18.9265 3.89809 17.3165 2.28809 15.3265 2.28809H6.52651ZM16.1765 3.78809C16.508 3.78809 16.826 3.91978 17.0604 4.1542C17.2948 4.38862 17.4265 4.70657 17.4265 5.03809C17.4265 5.36961 17.2948 5.68755 17.0604 5.92197C16.826 6.15639 16.508 6.28809 16.1765 6.28809C15.845 6.28809 15.5271 6.15639 15.2926 5.92197C15.0582 5.68755 14.9265 5.36961 14.9265 5.03809C14.9265 4.70657 15.0582 4.38862 15.2926 4.1542C15.5271 3.91978 15.845 3.78809 16.1765 3.78809ZM10.9265 5.28809C12.2526 5.28809 13.5244 5.81487 14.462 6.75255C15.3997 7.69023 15.9265 8.962 15.9265 10.2881C15.9265 11.6142 15.3997 12.8859 14.462 13.8236C13.5244 14.7613 12.2526 15.2881 10.9265 15.2881C9.60043 15.2881 8.32866 14.7613 7.39098 13.8236C6.4533 12.8859 5.92651 11.6142 5.92651 10.2881C5.92651 8.962 6.4533 7.69023 7.39098 6.75255C8.32866 5.81487 9.60043 5.28809 10.9265 5.28809ZM10.9265 7.28809C10.1309 7.28809 9.3678 7.60416 8.80519 8.16677C8.24258 8.72937 7.92651 9.49244 7.92651 10.2881C7.92651 11.0837 8.24258 11.8468 8.80519 12.4094C9.3678 12.972 10.1309 13.2881 10.9265 13.2881C11.7222 13.2881 12.4852 12.972 13.0478 12.4094C13.6104 11.8468 13.9265 11.0837 13.9265 10.2881C13.9265 9.49244 13.6104 8.72937 13.0478 8.16677C12.4852 7.60416 11.7222 7.28809 10.9265 7.28809Z" fill="#D5AC5B"/>
</svg>
