<svg width="21" height="21" viewBox="0 0 21 21" fill="none" xmlns="http://www.w3.org/2000/svg">
<path fill-rule="evenodd" clip-rule="evenodd" d="M19.8225 0.698975H2.03051C1.42051 0.698975 0.926514 1.19297 0.926514 1.80297V19.595C0.926514 20.205 1.42051 20.699 2.03051 20.699H11.6085V12.954H9.00251V9.93598H11.6085V7.70897C11.6085 5.12497 13.1865 3.71897 15.4915 3.71897C16.5955 3.71897 17.5435 3.80097 17.8205 3.83797V6.53797H16.2225C14.9685 6.53797 14.7265 7.13397 14.7265 8.00797V9.93497H17.7155L17.3255 12.953H14.7255V20.699H19.8225C20.4325 20.699 20.9265 20.205 20.9265 19.595V1.80297C20.9265 1.19297 20.4325 0.698975 19.8225 0.698975Z" fill="#D5AC5B"/>
</svg>
