<svg width="21" height="21" viewBox="0 0 21 21" fill="none" xmlns="http://www.w3.org/2000/svg">
<path fill-rule="evenodd" clip-rule="evenodd" d="M8.94941 0.336914C7.52223 0.337036 6.11578 0.678452 4.8474 1.33268C3.57901 1.98691 2.48547 2.93497 1.658 4.09778C0.830535 5.26059 0.293143 6.60442 0.0906599 8.01715C-0.111823 9.42989 0.0264734 10.8706 0.494012 12.219C0.961551 13.5674 1.74477 14.7844 2.77834 15.7686C3.8119 16.7528 5.06583 17.4755 6.43551 17.8765C7.80519 18.2775 9.25091 18.3451 10.652 18.0737C12.0532 17.8023 13.3691 17.1998 14.49 16.3164L18.3354 20.1618C18.534 20.3536 18.7999 20.4597 19.076 20.4573C19.3521 20.4549 19.6162 20.3442 19.8114 20.149C20.0066 19.9537 20.1174 19.6896 20.1198 19.4136C20.1222 19.1375 20.016 18.8715 19.8242 18.6729L15.9789 14.8276C17.0192 13.5078 17.6669 11.9219 17.848 10.2512C18.029 8.58048 17.736 6.89258 17.0026 5.38063C16.2691 3.86867 15.1248 2.59375 13.7006 1.70178C12.2764 0.809799 10.6299 0.336801 8.94941 0.336914ZM2.10525 9.28696C2.10525 7.47178 2.82633 5.73094 4.10986 4.44741C5.39339 3.16388 7.13422 2.44281 8.94941 2.44281C10.7646 2.44281 12.5054 3.16388 13.789 4.44741C15.0725 5.73094 15.7936 7.47178 15.7936 9.28696C15.7936 11.1021 15.0725 12.843 13.789 14.1265C12.5054 15.41 10.7646 16.1311 8.94941 16.1311C7.13422 16.1311 5.39339 15.41 4.10986 14.1265C2.82633 12.843 2.10525 11.1021 2.10525 9.28696Z" fill="#4D2F20"/>
</svg>
